<svg xmlns="http://www.w3.org/2000/svg" width="16" height="16" viewBox="0 0 100 100">
    <rect width="100" height="100" rx="20" fill="#ee9955" />
    <path fill="#ffffff"
          d="M74.99 36.08L61.73 36.08Q61.35 32.21 58.44 30.07Q55.53 27.93 50.54 27.93L50.54 27.93Q47.16 27.93 44.82 28.87Q42.49 29.82 41.26 31.48Q40.03 33.14 40.03 35.25L40.03 35.25Q39.96 37.01 40.78 38.32Q41.59 39.63 43.03 40.57Q44.47 41.51 46.36 42.20Q48.24 42.89 50.38 43.37L50.38 43.37L56.26 44.77Q60.55 45.73 64.13 47.33Q67.71 48.93 70.33 51.26Q72.95 53.60 74.40 56.76Q75.86 59.92 75.89 64.01L75.89 64.01Q75.86 70.02 72.84 74.42Q69.82 78.81 64.14 81.23Q58.47 83.64 50.48 83.64L50.48 83.64Q42.55 83.64 36.69 81.21Q30.82 78.78 27.55 74.00Q24.27 69.22 24.11 62.16L24.11 62.16L37.50 62.16Q37.73 65.45 39.41 67.64Q41.08 69.83 43.91 70.93Q46.74 72.04 50.32 72.04L50.32 72.04Q53.84 72.04 56.44 71.01Q59.04 69.99 60.48 68.17Q61.92 66.35 61.92 63.98L61.92 63.98Q61.92 61.78 60.63 60.28Q59.33 58.77 56.86 57.72Q54.38 56.66 50.80 55.80L50.80 55.80L43.67 54.01Q35.39 52.00 30.60 47.71Q25.81 43.43 25.84 36.18L25.84 36.18Q25.81 30.23 29.02 25.79Q32.23 21.35 37.86 18.85Q43.48 16.36 50.64 16.36L50.64 16.36Q57.93 16.36 63.38 18.85Q68.82 21.35 71.86 25.79Q74.90 30.23 74.99 36.08L74.99 36.08Z" />
</svg>