<svg xmlns="http://www.w3.org/2000/svg" width="16" height="16" viewBox="0 0 100 100">
    <rect y="10" width="100" height="80" rx="10" fill="#66CC88" />
    <path fill="#fff"
          d="M22.65 42.10L15.35 64.55L8.76 64.55L18.80 35.45L26.73 35.45L36.75 64.55L30.16 64.55L22.88 42.10L22.65 42.10ZM14.94 57.91L14.94 53.11L30.50 53.11L30.50 57.91L14.94 57.91ZM50.56 64.55L50.56 64.55L40.25 64.55L40.25 35.45L50.65 35.45Q55.04 35.45 58.20 37.19Q61.37 38.93 63.08 42.19Q64.79 45.44 64.79 49.97L64.79 49.97Q64.79 54.52 63.08 57.78Q61.37 61.05 58.18 62.80Q54.99 64.55 50.56 64.55ZM46.40 40.72L46.40 59.28L50.31 59.28Q53.03 59.28 54.90 58.30Q56.77 57.33 57.71 55.28Q58.66 53.22 58.66 49.97L58.66 49.97Q58.66 46.75 57.71 44.70Q56.77 42.66 54.91 41.69Q53.05 40.72 50.32 40.72L50.32 40.72L46.40 40.72ZM75.49 64.55L69.34 64.55L69.34 35.45L80.82 35.45Q84.13 35.45 86.46 36.71Q88.79 37.97 90.01 40.19Q91.24 42.41 91.24 45.31L91.24 45.31Q91.24 48.21 89.99 50.43Q88.74 52.64 86.38 53.88Q84.01 55.11 80.66 55.11L80.66 55.11L73.35 55.11L73.35 50.18L79.67 50.18Q81.44 50.18 82.60 49.57Q83.76 48.95 84.33 47.85Q84.91 46.75 84.91 45.31L84.91 45.31Q84.91 43.86 84.33 42.78Q83.76 41.69 82.59 41.09Q81.43 40.48 79.64 40.48L79.64 40.48L75.49 40.48L75.49 64.55Z" />
</svg>