<svg xmlns="http://www.w3.org/2000/svg" width="16" height="16" viewBox="0 0 100 100">
    <rect width="100" height="100" rx="50" fill="#66CC88" />
    <path fill="#fff"
          d="M52.41 79.09L27.56 79.09L27.56 20.91L50.85 20.91Q57.27 20.91 61.56 22.81Q65.85 24.72 68.01 28.08Q70.17 31.45 70.17 35.82L70.17 35.82Q70.17 39.23 68.81 41.80Q67.44 44.38 65.07 46.01Q62.70 47.64 59.66 48.32L59.66 48.32L59.66 48.89Q62.98 49.03 65.89 50.77Q68.81 52.50 70.63 55.61Q72.44 58.72 72.44 63.01L72.44 63.01Q72.44 67.64 70.16 71.26Q67.87 74.89 63.41 76.99Q58.95 79.09 52.41 79.09L52.41 79.09ZM39.86 53.58L39.86 69.03L49.89 69.03Q55.03 69.03 57.39 67.06Q59.74 65.09 59.74 61.79L59.74 61.79Q59.74 59.38 58.58 57.53Q57.41 55.68 55.27 54.63Q53.13 53.58 50.17 53.58L50.17 53.58L39.86 53.58ZM39.86 30.85L39.86 45.26L48.98 45.26Q51.51 45.26 53.48 44.36Q55.45 43.47 56.61 41.82Q57.76 40.17 57.76 37.87L57.76 37.87Q57.76 34.72 55.53 32.78Q53.30 30.85 49.20 30.85L49.20 30.85L39.86 30.85Z" />
</svg>