<svg xmlns="http://www.w3.org/2000/svg" width="16" height="16" viewBox="0 0 100 100">
    <rect width="100" height="100" rx="50" fill="#66CC88" />
    <path fill="#fff"
          d="M76.18 41.28L76.18 41.28L63.74 41.28Q63.39 38.86 62.34 36.97Q61.29 35.09 59.64 33.75Q58.00 32.41 55.85 31.70Q53.71 30.99 51.21 30.99L51.21 30.99Q46.69 30.99 43.34 33.22Q39.99 35.45 38.14 39.70Q36.29 43.95 36.29 50L36.29 50Q36.29 56.22 38.15 60.45Q40.01 64.69 43.37 66.85Q46.72 69.01 51.12 69.01L51.12 69.01Q53.59 69.01 55.71 68.35Q57.83 67.70 59.47 66.43Q61.12 65.17 62.22 63.35Q63.31 61.53 63.74 59.20L63.74 59.20L76.18 59.26Q75.70 63.27 73.78 66.97Q71.86 70.68 68.64 73.59Q65.41 76.51 60.97 78.20Q56.52 79.89 50.92 79.89L50.92 79.89Q43.14 79.89 37.02 76.36Q30.89 72.84 27.36 66.16Q23.82 59.49 23.82 50L23.82 50Q23.82 40.48 27.40 33.81Q30.98 27.13 37.12 23.62Q43.25 20.11 50.92 20.11L50.92 20.11Q55.98 20.11 60.31 21.53Q64.64 22.95 68.00 25.67Q71.35 28.38 73.47 32.30Q75.58 36.22 76.18 41.28Z" />
</svg>