<svg xmlns="http://www.w3.org/2000/svg" width="16" height="16" viewBox="0 0 100 100">
    <rect width="100" height="100" rx="50" fill="#55aadd" />
    <path fill="#fff"
          d="M46.57 75.45L46.57 75.45L28.52 75.45L28.52 24.55L46.72 24.55Q54.40 24.55 59.94 27.59Q65.49 30.64 68.48 36.33Q71.48 42.02 71.48 49.95L71.48 49.95Q71.48 57.90 68.48 63.62Q65.49 69.34 59.91 72.40Q54.33 75.45 46.57 75.45ZM39.29 33.77L39.29 66.23L46.12 66.23Q50.89 66.23 54.16 64.53Q57.43 62.83 59.09 59.23Q60.74 55.64 60.74 49.95L60.74 49.95Q60.74 44.31 59.09 40.73Q57.43 37.15 54.18 35.46Q50.92 33.77 46.15 33.77L46.15 33.77L39.29 33.77Z" />
</svg>