<svg xmlns="http://www.w3.org/2000/svg" width="16" height="16" viewBox="0 0 100 100">
    <rect width="100" height="100" rx="50" fill="#55aadd" />
    <path fill="#fff"
          d="M40.69 75.45L29.93 75.45L29.93 24.55L50.01 24.55Q55.78 24.55 59.87 26.60Q63.96 28.65 66.11 32.39Q68.26 36.13 68.26 41.18L68.26 41.18Q68.26 46.25 66.07 49.89Q63.88 53.53 59.74 55.47Q55.61 57.41 49.74 57.41L49.74 57.41L36.29 57.41L36.29 48.76L48.00 48.76Q51.08 48.76 53.12 47.91Q55.16 47.07 56.16 45.38Q57.17 43.69 57.17 41.18L57.17 41.18Q57.17 38.64 56.16 36.90Q55.16 35.16 53.11 34.25Q51.06 33.35 47.95 33.35L47.95 33.35L40.69 33.35L40.69 75.45ZM45.81 52.29L57.42 52.29L70.07 75.45L58.19 75.45L45.81 52.29Z" />
</svg>