<svg xmlns="http://www.w3.org/2000/svg" width="16" height="16" viewBox="0 0 100 100">
    <rect width="100" height="100" rx="50" fill="#EE9955" />
    <path fill="#fff"
          d="M72.22 37.63L60.43 37.63Q60.09 34.19 57.50 32.29Q54.91 30.38 50.48 30.38L50.48 30.38Q47.47 30.38 45.40 31.22Q43.32 32.06 42.23 33.54Q41.14 35.01 41.14 36.89L41.14 36.89Q41.08 38.45 41.80 39.62Q42.53 40.78 43.81 41.62Q45.09 42.46 46.76 43.07Q48.44 43.68 50.34 44.11L50.34 44.11L55.57 45.36Q59.38 46.21 62.56 47.63Q65.74 49.05 68.07 51.12Q70.40 53.20 71.69 56.01Q72.98 58.82 73.01 62.46L73.01 62.46Q72.98 67.80 70.30 71.70Q67.61 75.61 62.57 77.76Q57.53 79.90 50.43 79.90L50.43 79.90Q43.38 79.90 38.17 77.74Q32.95 75.58 30.04 71.34Q27.13 67.09 26.99 60.81L26.99 60.81L38.89 60.81Q39.09 63.74 40.58 65.68Q42.07 67.63 44.59 68.61Q47.10 69.59 50.28 69.59L50.28 69.59Q53.41 69.59 55.72 68.68Q58.04 67.77 59.32 66.15Q60.60 64.53 60.60 62.43L60.60 62.43Q60.60 60.47 59.45 59.13Q58.30 57.80 56.09 56.86Q53.89 55.92 50.71 55.16L50.71 55.16L44.38 53.57Q37.02 51.78 32.76 47.97Q28.49 44.16 28.52 37.71L28.52 37.71Q28.49 32.43 31.35 28.48Q34.20 24.53 39.20 22.32Q44.20 20.10 50.57 20.10L50.57 20.10Q57.05 20.10 61.89 22.32Q66.73 24.53 69.43 28.48Q72.13 32.43 72.22 37.63L72.22 37.63Z" />
</svg>