<svg xmlns="http://www.w3.org/2000/svg" width="16" height="16" viewBox="0 0 100 100">
    <rect width="100" height="100" rx="20" fill="#ee9955"/>
    <path fill="#ffffff"
          d="M25.06 33.64L31.94 33.64L31.94 66.36L25.97 66.36L11.73 45.77L11.49 45.77L11.49 66.36L4.57 66.36L4.57 33.64L10.64 33.64L24.77 54.22L25.06 54.22L25.06 33.64ZM36.29 33.64L44.14 33.64L50.74 44.79L50.99 44.79L57.62 33.64L65.44 33.64L55.45 50L65.66 66.36L57.70 66.36L50.99 55.19L50.74 55.19L44.02 66.36L36.10 66.36L46.34 50L36.29 33.64ZM78.57 39.34L68.55 39.34L68.55 33.64L95.43 33.64L95.43 39.34L85.41 39.34L85.41 66.36L78.57 66.36L78.57 39.34Z"/>
</svg>