<svg class="svg-icon" style="width: 1em; height: 1em;vertical-align: middle;fill: currentColor;overflow: hidden;" viewBox="0 0 1024 1024" version="1.1" xmlns="http://www.w3.org/2000/svg"><path d="M502.102582 154.265456l-13.638625-5.375427L355.093391 113.286136c-25.367761-6.633071-41.575908 2.574638-48.272423 27.653827L148.056034 800.814872c-6.690376 25.709545 2.51631 41.891086 27.910677 48.871057l133.343961 35.545564c25.736151 6.973832 41.977044-2.543939 48.63672-28.284183l158.823262-659.502425c5.406127-20.303418 0.598634-34.602076-14.613836-43.180452l-0.030699 0L502.102582 154.264433zM437.302741 383.829875c-1.572822 6.003737-4.745071 11.125385-9.463536 15.243169-4.40431 3.487428-8.865925 4.461615-12.955056 3.514033l-1.083681 0-120.958886-32.683377c-4.722558-1.285273-7.922437-4.40431-9.809413-9.837042-1.11438-2.687202-1.771343-5.575995-1.888-8.520047-0.197498-2.916423 0.116657-5.949502 0.916882-8.978489 1.600451-6.291287 4.746094-11.094686 9.521864-14.613836 4.086062-4.090155 8.893554-5.375427 13.666254-4.090155l120.958886 32.715099 0.629333 0c0.804319 0.287549 1.401929 0.970094 2.116197 1.401929 3.03308 1.77032 5.603625 4.376681 7.433296 8.748245 1.11438 2.548032 1.774413 5.235235 1.917676 8.124028 0.144286 2.885723-0.170892 5.860475-0.974188 9.032724L437.302741 383.829875zM457.722816 304.019155c-0.170892 1.717108-0.170892 3.374864-0.715291 5.204535-1.11438 4.345981-3.433192 7.949043-6.205329 11.063987-1.087774 1.200338-2.000564 2.547009-3.316535 3.545756-1.289366 1.172709-2.601244 1.717108-3.919263 2.373047-2.974751 1.572822-5.89015 2.372024-8.776897 1.743714l-0.660032 0L313.197188 295.580972c-4.771677-1.546216-8.263198-5.060249-10.492982-10.494005-1.572822-3.859911-1.689479-7.921413-1.231037-12.124132 0.169869-1.658779 0.169869-3.289929 0.601704-5.03262 0.571005-1.802042 1.428535-3.263323 2.198062-4.862751 1.886977-4.003174 4.14746-7.549953 7.351432-10.066263 4.489244-3.801583 9.207709-5.060249 13.953803-3.460822l120.958886 32.369222 0.601704 0c2.741437 1.029446 4.803399 3.145643 6.574742 5.661953 0.971118 1.316995 1.914606 2.574638 2.660596 4.206812 1.11438 2.687202 1.743714 5.460362 1.856277 8.376785 0.085958 1.289366-0.36839 2.602268-0.511653 3.918239L457.722816 304.019155zM683.19708 177.969321c-2.570545 6.031367-3.828188 12.982686-3.828188 20.959358l0 684.353416c0 8.263198 1.257643 15.242146 3.828188 20.990057 2.831488 5.635347 6.349615 8.524141 10.438747 8.524141 4.176113 0 7.352455-2.888793 10.17985-8.524141 2.862187-5.746888 4.403287-12.722766 4.403287-20.990057L708.218964 198.928678c0-7.976672-1.572822-14.927991-4.403287-20.959358-2.858094-5.747911-6.003737-8.609075-10.17985-8.609075C689.546695 169.360246 686.028569 172.191734 683.19708 177.969321L683.19708 177.969321zM665.698544 198.928678c0-7.921413-1.231037-14.896268-3.801583-20.959358-3.145643-5.720282-6.66377-8.550747-10.80816-8.550747-4.120854 0-7.266497 2.830465-10.151197 8.550747-2.831488 6.062066-4.40431 13.037944-4.40431 20.959358l0 684.353416c0 8.236592 1.572822 15.242146 4.40431 20.963451 2.916423 5.688559 6.061043 8.550747 10.151197 8.550747 4.143367 0 7.633864-2.862187 10.80816-8.550747 2.573615-5.720282 3.801583-12.726859 3.801583-20.963451L665.698544 198.928678 665.698544 198.928678zM853.031117 177.969321c-2.574638 6.031367-3.774977 12.982686-3.774977 20.959358l0 684.353416c0 8.263198 1.226944 15.242146 3.774977 20.990057 2.858094 5.635347 6.344498 8.524141 10.434653 8.524141 4.205788 0 7.379061-2.888793 10.209526-8.524141 2.831488-5.746888 4.377704-12.722766 4.377704-20.990057L878.053 198.928678c0-7.976672-1.573845-14.927991-4.377704-20.959358-2.830465-5.747911-6.003737-8.609075-10.209526-8.609075C859.375615 169.360246 855.889211 172.191734 853.031117 177.969321L853.031117 177.969321 853.031117 177.969321zM835.558164 198.928678c0-7.921413-1.231037-14.896268-3.832282-20.959358-3.145643-5.720282-6.66377-8.550747-10.780531-8.550747-4.119831 0-7.293103 2.830465-10.18292 8.550747-2.827395 6.062066-4.400217 13.037944-4.400217 20.959358l0 684.353416c0 8.236592 1.600451 15.242146 4.400217 20.963451 2.919493 5.688559 6.065136 8.550747 10.18292 8.550747 4.116761 0 7.634888-2.862187 10.780531-8.550747 2.602268-5.720282 3.832282-12.726859 3.832282-20.963451L835.558164 198.928678 835.558164 198.928678zM602.844008 172.878372c-6.034437-5.688559-13.010315-8.578376-20.990057-8.578376-8.236592 0-15.211447 2.889817-21.219277 8.578376-5.746888 5.746888-8.550747 12.725836-8.550747 20.963451l0 689.129186c0 8.232498 2.830465 15.211447 8.550747 20.959358 6.003737 5.977132 12.982686 8.865925 21.219277 8.865925 8.008394 0 14.95562-2.888793 20.990057-8.865925 5.746888-5.746888 8.606005-12.726859 8.606005-20.959358L611.450013 193.841823C611.450013 185.604208 608.591919 178.598654 602.844008 172.878372L602.844008 172.878372 602.844008 172.878372zM736.843908 172.878372c-5.688559 5.746888-8.578376 12.725836-8.578376 20.963451l0 689.129186c0 8.232498 2.889817 15.211447 8.578376 20.959358 6.003737 5.977132 12.982686 8.865925 20.963451 8.865925 8.264221 0 15.239076-2.888793 21.274536-8.865925 5.688559-5.746888 8.550747-12.726859 8.550747-20.959358L787.632641 193.841823c0-8.236592-2.862187-15.243169-8.550747-20.963451-6.03546-5.688559-12.982686-8.578376-21.274536-8.578376C749.826594 164.298973 742.847645 167.189813 736.843908 172.878372L736.843908 172.878372 736.843908 172.878372zM736.843908 172.878372"  /></svg>